<?xml version="1.0" standalone="no"?><!DOCTYPE svg PUBLIC "-//W3C//DTD SVG 1.1//EN" "http://www.w3.org/Graphics/SVG/1.1/DTD/svg11.dtd"><svg t="1677826341192" class="icon" viewBox="0 0 1024 1024" version="1.1" xmlns="http://www.w3.org/2000/svg" p-id="1483" width="16" height="16" xmlns:xlink="http://www.w3.org/1999/xlink"><path d="M292.992 298.976c124.16-124.16 326.752-121.888 450.4 1.76 121.696 121.696 123.936 321.184 1.728 443.392l-47.264 47.232a32 32 0 0 1-45.248-45.248l47.264-47.232c96.704-96.736 95.488-255.68-1.728-352.896-99.168-99.136-261.248-100.384-359.904-1.76a253.216 253.216 0 0 0 0 358.112l179.072 179.072 47.264-47.264a32 32 0 0 1 45.28 45.248l-62.016 61.984a43.2 43.2 0 0 1-61.056 0l-193.792-193.76c-123.872-123.904-123.872-324.768 0-448.64z" fill="#404040" p-id="1484"></path><path d="M517.312 437.12a86.848 86.848 0 1 0 0 173.728 86.848 86.848 0 0 0 0-173.696z m-150.848 86.88a150.848 150.848 0 1 1 301.696 0 150.848 150.848 0 0 1-301.696 0z" fill="#F2B71E" p-id="1485"></path></svg>