<?xml version="1.0" standalone="no"?><!DOCTYPE svg PUBLIC "-//W3C//DTD SVG 1.1//EN" "http://www.w3.org/Graphics/SVG/1.1/DTD/svg11.dtd"><svg t="1677825810630" class="icon" viewBox="0 0 1024 1024" version="1.1" xmlns="http://www.w3.org/2000/svg" p-id="3970" xmlns:xlink="http://www.w3.org/1999/xlink" width="200" height="200"><path d="M512 738.909091a69.818182 69.818182 0 0 1-55.854545-27.927273C375.621818 605.090909 279.272727 458.24 279.272727 372.363636a232.727273 232.727273 0 0 1 465.454546 0c0 85.876364-96.349091 232.727273-177.105455 338.618182a69.818182 69.818182 0 0 1-55.621818 27.927273zM512 186.181818a186.181818 186.181818 0 0 0-186.181818 186.181818c0 56.087273 60.974545 169.192727 167.563636 310.690909a23.272727 23.272727 0 0 0 37.236364 0C636.974545 541.556364 698.181818 428.450909 698.181818 372.363636a186.181818 186.181818 0 0 0-186.181818-186.181818z" p-id="3971"></path><path d="M512 465.454545a93.090909 93.090909 0 1 1 93.090909-93.090909 93.090909 93.090909 0 0 1-93.090909 93.090909z m0-139.636363a46.545455 46.545455 0 1 0 46.545455 46.545454 46.545455 46.545455 0 0 0-46.545455-46.545454zM581.818182 907.636364a23.272727 23.272727 0 0 1-13.265455-4.189091l-223.650909-156.625455L192.465455 791.272727a23.272727 23.272727 0 0 1-20.247273-3.723636A23.272727 23.272727 0 0 1 162.909091 768v-209.454545a23.272727 23.272727 0 0 1 46.545454 0v178.501818L342.807273 698.181818a23.272727 23.272727 0 0 1 19.549091 3.258182l222.021818 155.229091L814.545455 753.105455V558.545455a23.272727 23.272727 0 0 1 46.545454 0v209.454545a23.272727 23.272727 0 0 1-13.730909 21.178182l-256 116.363636A23.272727 23.272727 0 0 1 581.818182 907.636364z" p-id="3972"></path></svg>