<?xml version="1.0" standalone="no"?><!DOCTYPE svg PUBLIC "-//W3C//DTD SVG 1.1//EN" "http://www.w3.org/Graphics/SVG/1.1/DTD/svg11.dtd"><svg t="1677825868667" class="icon" viewBox="0 0 1024 1024" version="1.1" xmlns="http://www.w3.org/2000/svg" p-id="9108" xmlns:xlink="http://www.w3.org/1999/xlink" width="200" height="200"><path d="M512 121c-163.24 0-295.89 132.59-295.89 295.89 0 110.7 136.38 294.65 223.94 401.62C481.35 869.84 512 903 512 903s30.65-33.13 72-84.43c87.56-107 223.94-290.92 223.94-401.62C807.89 253.62 675.24 121 512 121z m0 456.16c-85.95 0-155.89-70-155.89-155.89S426.05 265.41 512 265.41s155.89 69.94 155.89 155.89S598 577.19 512 577.19z" fill="#142E4F" p-id="9109"></path><path d="M511.98577 421.278021m-23.393668 99.116708a101.84 101.84 0 1 0 46.787337-198.233416 101.84 101.84 0 1 0-46.787337 198.233416Z" fill="#FF9600" p-id="9110"></path></svg>