<?xml version="1.0" standalone="no"?><!DOCTYPE svg PUBLIC "-//W3C//DTD SVG 1.1//EN" "http://www.w3.org/Graphics/SVG/1.1/DTD/svg11.dtd"><svg t="1677825877512" class="icon" viewBox="0 0 1024 1024" version="1.1" xmlns="http://www.w3.org/2000/svg" p-id="10145" xmlns:xlink="http://www.w3.org/1999/xlink" width="200" height="200"><path d="M501.097 819.37l11.466 11.807 11.469-11.807c0.717-0.717 71.434-73.667 141.172-163.211 95.188-122.172 143.47-216.060 143.47-279.039 0-73.71-31.012-142.91-87.29-194.842-55.839-51.571-130.027-79.971-208.822-79.971-78.814 0-152.979 28.399-208.82 79.97-56.299 51.933-87.291 121.133-87.291 194.842 0 62.979 48.282 156.867 143.468 279.039 69.741 89.545 140.458 162.495 141.177 163.212zM512.561 277.126c56.38 0 102.268 46.546 102.268 103.743 0 57.235-45.888 103.78-102.268 103.78-56.377 0-102.266-46.546-102.266-103.78 0-57.197 45.889-103.743 102.266-103.743zM686.902 753.717l-25.627 25.607c16.793 10.81 26.722 22.895 26.722 34.543 0 32.986-76.142 69.837-178.068 69.837-101.927 0-178.069-36.852-178.069-69.837 0-12.724 11.548-25.967 31.33-37.534l-23.214-27.359c-27.142 17.628-43.077 39.965-43.077 64.853 0 60.028 91.557 105.298 213.030 105.298 121.472 0 213.009-45.231 213.009-105.298-0.038-22.656-13.162-43.278-36.035-60.109z" fill="#d81e06" p-id="10146"></path></svg>