<?xml version="1.0" standalone="no"?><!DOCTYPE svg PUBLIC "-//W3C//DTD SVG 1.1//EN" "http://www.w3.org/Graphics/SVG/1.1/DTD/svg11.dtd"><svg t="1677825887625" class="icon" viewBox="0 0 1024 1024" version="1.1" xmlns="http://www.w3.org/2000/svg" p-id="11153" xmlns:xlink="http://www.w3.org/1999/xlink" width="200" height="200"><path d="M512.003523 148.646412m-148.646411 0a148.646412 148.646412 0 1 0 297.292823 0 148.646412 148.646412 0 1 0-297.292823 0Z" fill="#F9BA48" p-id="11154"></path><path d="M272.649962 383.965647l-15.245876-29.283217a202.107396 202.107396 0 0 0-30.255682 19.357718l20.231528 26.129747a167.690544 167.690544 0 0 1 25.27003-16.204248zM330.028999 365.74952l-4.823573-32.686848a227.592356 227.592356 0 0 0-34.684633 7.910097l9.943116 31.513547a189.70845 189.70845 0 0 1 29.56509-6.736796zM225.235182 420.630446l-24.396221-22.296257a228.818509 228.818509 0 0 0-21.852305 28.127532l27.563783 18.202032a196.254981 196.254981 0 0 1 18.684743-24.033307zM537.798545 726.890395l-0.447475 33.032145c239.202053 3.238031 413.414464 51.713364 447.436692 98.913215h-92.919863v33.032144h92.440676c-34.205446 44.807443-201.03275 96.799158-455.794265 98.98016V924.900043h-33.032144v65.948016c-254.761515-2.181002-421.588819-54.172717-455.794265-98.98016h92.4442v-33.032144H39.212238c34.022228-47.203375 208.234638-95.678707 447.436692-98.913215l-0.447475-33.032145C244.589376 730.160137 0.003523 782.20118 0.003523 875.353588c0 96.552518 263.795586 148.646412 511.996477 148.646412s511.996477-52.09037 511.996477-148.646412c0.003523-93.152409-244.582329-145.193451-486.197932-148.463193zM844.99925 426.461721a228.818509 228.818509 0 0 0-21.852305-28.127532l-24.392697 22.296257a194.324142 194.324142 0 0 1 18.663602 24.029784l27.5814-18.198509zM832.346617 471.385437a202.209575 202.209575 0 0 1 4.92223 11.493424c-25.816162 9.00236-44.493858 33.314019-44.493858 62.14976 0 36.435777 29.628512 66.064289 66.064289 66.064289s66.064289-29.628512 66.064289-66.064289c0-32.109006-23.039701-58.880018-53.446891-64.792331a224.428317 224.428317 0 0 0-9.182055-22.793061l-29.928004 13.942208z m59.524805 73.646707c0 18.216127-14.816018 33.032144-33.032144 33.032145s-33.032144-14.816018-33.032144-33.032145 14.816018-33.032144 33.032144-33.032144 33.032144 14.812494 33.032144 33.032144zM733.48273 340.990386a225.4184 225.4184 0 0 0-34.684632-7.910097l-4.823574 32.686848a191.843648 191.843648 0 0 1 29.579184 6.754413l9.929022-31.531164zM796.837502 374.022531a200.683931 200.683931 0 0 0-30.255682-19.357718l-15.245876 29.283216a168.613682 168.613682 0 0 1 25.270031 16.186632l20.231527-26.11213z" fill="#333333" p-id="11155"></path><path d="M512.003523 858.835755l-165.160722-528.514311h330.317921z" fill="#F9BA48" p-id="11156"></path><path d="M165.164245 611.096433c36.435777 0 66.064289-29.628512 66.064289-66.064289 0-28.835741-18.681219-53.147399-44.493858-62.149759a197.593884 197.593884 0 0 1 4.92223-11.493425l-29.942097-13.938684a224.428317 224.428317 0 0 0-9.182056 22.793061c-30.389573 5.912313-53.429273 32.686848-53.429273 64.792331-0.003523 36.42873 29.628512 66.060765 66.060765 66.060765z m0-99.096433c18.216127 0 33.032144 14.816018 33.032145 33.032144s-14.816018 33.032144-33.032145 33.032145-33.032144-14.816018-33.032144-33.032145 14.816018-33.032144 33.032144-33.032144z" fill="#333333" p-id="11157"></path></svg>